<?xml version="1.0"?>
<svg xmlns="http://www.w3.org/2000/svg" height="512px" viewBox="0 -56 512 512" width="512px" class=""><g><path d="m263.257812 191.1875v-80.078125h-15.015624v52.300781l-16.515626-26.425781-16.515624 26.425781v-52.300781h-15.015626v80.078125h16.171876l15.859374-25.375 15.859376 25.375zm0 0" data-original="#000000" class="active-path" data-old_color="#000000" fill="#CB3337"/><path d="m280.273438 111.109375v80.078125h16.171874l15.859376-25.375 15.859374 25.375h15.171876v-80.078125h-15.015626v52.300781l-16.515624-26.425781-16.515626 26.425781v-52.300781zm0 0" data-original="#000000" class="active-path" data-old_color="#000000" fill="#CB3337"/><path d="m120.117188 111.109375v80.078125h16.171874l15.859376-25.375 15.859374 25.375h15.171876v-80.078125h-15.015626v52.300781l-16.515624-26.425781-16.515626 26.425781v-52.300781zm0 0" data-original="#000000" class="active-path" data-old_color="#000000" fill="#CB3337"/><path d="m352.34375 176.171875h16.015625v15.015625h-16.015625zm0 0" data-original="#000000" class="active-path" data-old_color="#000000" fill="#CB3337"/><path d="m192.1875 240.234375h16.015625v15.015625h-16.015625zm0 0" data-original="#000000" class="active-path" data-old_color="#000000" fill="#CB3337"/><path d="m224.21875 240.234375h16.015625v15.015625h-16.015625zm0 0" data-original="#000000" class="active-path" data-old_color="#000000" fill="#CB3337"/><path d="m256.25 240.234375h16.015625v15.015625h-16.015625zm0 0" data-original="#000000" class="active-path" data-old_color="#000000" fill="#CB3337"/><path d="m408.398438 191.9375c-49.039063 0-90.226563 34.285156-100.90625 80.328125h-292.476563v-257.25c0-.277344.722656 0 1 0h432.421875c.277344 0 0-.277344 0 0v168.164063h15.015625v-168.164063c0-8.554687-6.460937-15.015625-15.015625-15.015625h-432.421875c-8.554687 0-16.015625 6.460938-16.015625 15.015625v304.296875c0 8.554688 7.460938 16.015625 16.015625 16.015625h168.164063v49.046875h-32.03125v15.015625h160.15625v-15.015625h-33.03125v-49.046875h17.015624v-15.015625h-280.273437c-.277344 0-1-.726562-1-1v-32.03125h290.132813c-.230469 2-.351563 5.390625-.351563 8.257812 0 57.125 46.476563 103.476563 103.601563 103.476563s103.601562-46.414063 103.601562-103.539063c0-57.128906-46.476562-103.539062-103.601562-103.539062zm-144.140626 192.4375h-65.0625v-49.046875h65.0625zm95.59375-88.585938c0-8.46875.695313-17.515624 1.976563-24.523437h38.5625v49.046875h-38.5625c-1.28125-8.007812-1.976563-16.054688-1.976563-24.523438zm55.554688-87.972656c16.015625 4.597656 29.238281 23.410156 36.246094 48.433594h-36.246094zm-15.015625 0v48.433594h-35.242187c7.003906-25.023438 20.226562-43.835938 35.242187-48.433594zm0 127.511719v47.433594c-15.015625-4.597657-28.238281-23.410157-35.242187-47.433594zm15.015625 47.433594v-47.433594h36.246094c-7.007813 24.023437-20.230469 42.835937-36.246094 47.433594zm0-62.449219v-49.046875h39.5625c1.285156 7.007813 1.976562 16.054687 1.976562 24.523437s-.695312 16.515626-1.976562 24.523438zm54.800781-49.046875h23.324219c2.246094 7.007813 3.453125 16.019531 3.453125 24.523437 0 8.503907-1.207031 16.515626-3.453125 24.523438h-23.324219c1.15625-8.007812 1.753907-16.15625 1.753907-24.523438 0-8.367187-.597657-17.515624-1.753907-24.523437zm17.449219-15.015625h-20.402344c-2.949218-12.011719-7.234375-23.011719-12.734375-32.441406-1.25-2.148438-2.554687-4.0625-3.902343-6.007813 15.921874 8.667969 28.902343 21.433594 37.039062 38.449219zm-121.476562-38.574219c-1.347657 1.945313-2.648438 4.109375-3.902344 6.257813-5.5 9.429687-9.78125 20.304687-12.734375 32.316406h-20.402344c8.136719-17.015625 21.117187-29.90625 37.039063-38.574219zm-42.910157 53.589844h23.324219c-1.160156 7.007813-1.757812 16.15625-1.757812 24.523437 0 8.367188.597656 16.515626 1.757812 24.523438h-23.324219c-2.25-8.007812-3.457031-16.019531-3.457031-24.523438 0-8.503906 1.207031-17.515624 3.457031-24.523437zm5.871094 64.0625h20.402344c2.953125 11.011719 7.234375 22.511719 12.734375 31.941406 1.253906 2.148438 2.554687 4.3125 3.902344 6.257813-15.921876-8.671875-28.902344-22.183594-37.039063-38.199219zm121.476563 38.074219c1.347656-1.945313 2.652343-3.859375 3.902343-6.007813 5.5-9.429687 9.785157-21.054687 12.734375-32.066406h20.402344c-8.136719 16.015625-21.117188 29.402344-37.039062 38.074219zm0 0" data-original="#000000" class="active-path" data-old_color="#000000" fill="#CB3337"/></g> </svg>
