<?xml version="1.0"?>
<svg xmlns="http://www.w3.org/2000/svg" height="512px" viewBox="0 0 512 512" width="512px"><g><path d="m45 80c-8.269531 0-15-6.730469-15-15s6.730469-15 15-15h30c8.285156 0 15-6.714844 15-15s-6.714844-15-15-15h-15v-5c0-8.285156-6.714844-15-15-15s-15 6.714844-15 15v7.578125c-17.460938 6.195313-30 22.867187-30 42.421875 0 24.8125 20.1875 45 45 45 8.269531 0 15 6.730469 15 15s-6.730469 15-15 15h-30c-8.285156 0-15 6.714844-15 15s6.714844 15 15 15h15v5c0 8.285156 6.714844 15 15 15s15-6.714844 15-15v-7.578125c17.460938-6.195313 30-22.867187 30-42.421875 0-24.8125-20.1875-45-45-45zm0 0" data-original="#000000" class="active-path" data-old_color="#000000" fill="#CB3337"/><path d="m215.667969 302h-60c-8.285157 0-15 6.714844-15 15v180c0 8.285156 6.714843 15 15 15h60c8.28125 0 15-6.714844 15-15v-180c0-8.285156-6.71875-15-15-15zm0 0" data-original="#000000" class="active-path" data-old_color="#000000" fill="#CB3337"/><path d="m356.332031 362h-60c-8.28125 0-15 6.714844-15 15v120c0 8.285156 6.71875 15 15 15h60c8.285157 0 15-6.714844 15-15v-120c0-8.285156-6.714843-15-15-15zm0 0" data-original="#000000" class="active-path" data-old_color="#000000" fill="#CB3337"/><path d="m497 422h-60c-8.285156 0-15 6.714844-15 15v60c0 8.285156 6.714844 15 15 15h60c8.285156 0 15-6.714844 15-15v-60c0-8.285156-6.714844-15-15-15zm0 0" data-original="#000000" class="active-path" data-old_color="#000000" fill="#CB3337"/><path d="m75 220h-60c-8.285156 0-15 6.714844-15 15v262c0 8.285156 6.714844 15 15 15h60c8.285156 0 15-6.714844 15-15v-262c0-8.285156-6.714844-15-15-15zm0 0" data-original="#000000" class="active-path" data-old_color="#000000" fill="#CB3337"/><path d="m408.949219 309.859375c.277343-.035156.554687-.074219.828125-.128906.214844-.039063.425781-.085938.636718-.136719.234376-.054688.472657-.113281.703126-.179688.21875-.0625.4375-.128906.652343-.203124.222657-.074219.441407-.15625.660157-.242188.210937-.082031.421874-.164062.628906-.253906.21875-.097656.4375-.207032.652344-.316406.195312-.097657.390624-.191407.578124-.296876.226563-.125.445313-.265624.667969-.402343.167969-.105469.34375-.207031.507813-.320313.242187-.167968.472656-.351562.707031-.53125.132813-.101562.273437-.195312.402344-.304687.007812-.007813.019531-.011719.027343-.019531l60-50c6.363282-5.304688 7.226563-14.761719 1.921876-21.128907-5.304688-6.363281-14.765626-7.222656-21.125-1.917969l-37.34375 31.117188c-6.574219-51.289062-29.726563-98.683594-66.847657-135.804688-44.359375-44.359374-103.390625-68.789062-166.207031-68.789062-8.285156 0-15 6.714844-15 15s6.714844 15 15 15c54.804688 0 106.300781 21.3125 144.992188 60.007812 31.355468 31.351563 51.289062 71.105469 57.730468 114.21875l-44.003906-31.429687c-6.738281-4.816406-16.109375-3.253906-20.925781 3.484375-4.8125 6.742188-3.253907 16.109375 3.488281 20.925781l70 50c.058594.039063.117188.074219.175781.117188.148438.101562.300781.195312.449219.292969.226562.144531.449219.285156.679688.414062.164062.09375.328124.183594.5.273438.238281.125.480468.238281.722656.347656.164062.074218.320312.152344.484375.21875.390625.160156.789062.308594 1.1875.433594.121093.039062.246093.066406.367187.101562.3125.089844.625.171875.9375.242188.164063.035156.328125.066406.492188.09375.300781.058593.605468.101562.90625.140624.152344.015626.296875.035157.449218.050782.453126.039062.910157.066406 1.363282.066406h.003906.007812c.46875 0 .933594-.027344 1.398438-.070312.183594-.019532.363281-.046876.542969-.070313zm0 0" data-original="#000000" class="active-path" data-old_color="#000000" fill="#CB3337"/></g> </svg>
