<?xml version="1.0"?>
<svg xmlns="http://www.w3.org/2000/svg" id="Layer_35" enable-background="new 0 0 64 64" height="512px" viewBox="0 0 64 64" width="512px"><g><path d="m47.094 15.943c.628-.461 1.305-.859 2.033-1.165l-6.158-3.387c.011.203.031.404.031.609 0 .551-.054 1.089-.132 1.619z" data-original="#000000" class="active-path" data-old_color="#000000" fill="#CB3337"/><path d="m21.132 13.618c-.078-.529-.132-1.067-.132-1.618 0-.205.02-.405.031-.608l-6.157 3.386c.727.306 1.404.703 2.032 1.164z" data-original="#000000" class="active-path" data-old_color="#000000" fill="#CB3337"/><path d="m44 34c-1.105 0-2 .895-2 2v-2c0-1.105-.895-2-2-2s-2 .895-2 2c0-1.105-.895-2-2-2s-2 .895-2 2v-12c0-1.105-.895-2-2-2s-2 .895-2 2v19.014c0 .621-.145 1.233-.422 1.789l-.578 1.155h-1s-.587-2.934-1.125-5.623c-.509-2.545-2.744-4.377-5.34-4.377-.848 0-1.535.687-1.535 1.534v.001c0 .303.09.599.258.852l1.029 1.544c.469.703.768 1.507.873 2.345l.692 5.534c.098.786.351 1.545.744 2.233l3.404 6.999v3h-2v4h20v-4h-2v-3l1.8-2.4c.779-1.039 1.2-2.302 1.2-3.6v-13c0-1.105-.895-2-2-2z" data-original="#000000" class="active-path" data-old_color="#000000" fill="#CB3337"/><path d="m6.208 30.391c1.337 1.005 2.993 1.609 4.792 1.609s3.455-.604 4.792-1.609c-1.125-1.492-2.895-2.391-4.792-2.391s-3.667.899-4.792 2.391z" data-original="#000000" class="active-path" data-old_color="#000000" fill="#CB3337"/><circle cx="11" cy="23" r="3" data-original="#000000" class="active-path" data-old_color="#000000" fill="#CB3337"/><path d="m11 16c-4.411 0-8 3.589-8 8 0 1.893.664 3.633 1.768 5.004.792-.986 1.796-1.763 2.931-2.278-1.034-.917-1.699-2.239-1.699-3.726 0-2.757 2.243-5 5-5s5 2.243 5 5c0 1.487-.665 2.809-1.699 3.726 1.135.516 2.139 1.292 2.931 2.278 1.104-1.371 1.768-3.111 1.768-5.004 0-4.411-3.589-8-8-8z" data-original="#000000" class="active-path" data-old_color="#000000" fill="#CB3337"/><circle cx="53" cy="23" r="3" data-original="#000000" class="active-path" data-old_color="#000000" fill="#CB3337"/><path d="m57.792 30.391c-1.125-1.492-2.895-2.391-4.792-2.391s-3.667.899-4.792 2.391c1.337 1.005 2.993 1.609 4.792 1.609s3.455-.604 4.792-1.609z" data-original="#000000" class="active-path" data-old_color="#000000" fill="#CB3337"/><path d="m48 23c0-2.757 2.243-5 5-5s5 2.243 5 5c0 1.487-.665 2.809-1.699 3.726 1.135.516 2.139 1.292 2.931 2.278 1.104-1.371 1.768-3.111 1.768-5.004 0-4.411-3.589-8-8-8s-8 3.589-8 8c0 1.893.664 3.633 1.768 5.004.792-.986 1.796-1.763 2.931-2.278-1.034-.917-1.699-2.239-1.699-3.726z" data-original="#000000" class="active-path" data-old_color="#000000" fill="#CB3337"/><path d="m9 49.184v-13.184h-2v13.184c-1.161.414-2 1.514-2 2.816 0 1.654 1.346 3 3 3s3-1.346 3-3c0-1.302-.839-2.402-2-2.816z" data-original="#000000" class="active-path" data-old_color="#000000" fill="#CB3337"/><path d="m14 36c-1.654 0-3 1.346-3 3 0 1.302.839 2.402 2 2.816v13.184h2v-13.184c1.161-.414 2-1.514 2-2.816 0-1.654-1.346-3-3-3z" data-original="#000000" class="active-path" data-old_color="#000000" fill="#CB3337"/><path d="m53 49.184v-13.184h-2v13.184c-1.161.414-2 1.514-2 2.816 0 1.654 1.346 3 3 3s3-1.346 3-3c0-1.302-.839-2.402-2-2.816z" data-original="#000000" class="active-path" data-old_color="#000000" fill="#CB3337"/><path d="m58 36c-1.654 0-3 1.346-3 3 0 1.302.839 2.402 2 2.816v13.184h2v-13.184c1.161-.414 2-1.514 2-2.816 0-1.654-1.346-3-3-3z" data-original="#000000" class="active-path" data-old_color="#000000" fill="#CB3337"/><path d="m28.686 13.715c-1.026-.916-1.686-2.234-1.686-3.715 0-2.757 2.243-5 5-5s5 2.243 5 5c0 1.481-.66 2.799-1.686 3.715 1.658.752 3.021 2.059 3.845 3.718 1.15-1.512 1.841-3.391 1.841-5.433 0-4.963-4.037-9-9-9s-9 4.037-9 9c0 2.042.691 3.921 1.841 5.433.824-1.659 2.187-2.966 3.845-3.718z" data-original="#000000" class="active-path" data-old_color="#000000" fill="#CB3337"/><path d="m26.362 19.005c.623.503 1.317.92 2.06 1.244.651-1.326 2.003-2.249 3.578-2.249s2.927.923 3.579 2.249c.743-.325 1.436-.741 2.06-1.244-.839-2.38-3.067-4.005-5.639-4.005s-4.801 1.625-5.638 4.005z" data-original="#000000" class="active-path" data-old_color="#000000" fill="#CB3337"/><circle cx="32" cy="10" r="3" data-original="#000000" class="active-path" data-old_color="#000000" fill="#CB3337"/></g> </svg>
