<?xml version="1.0"?>
<svg xmlns="http://www.w3.org/2000/svg" id="Layer_1" enable-background="new 0 0 512 512" height="512px" viewBox="0 0 512 512" width="512px"><g><g><path d="m256.054 367.542c10.036 0 18.201-8.165 18.201-18.201s-8.165-18.202-18.201-18.202c-10.037 0-18.202 8.165-18.202 18.202s8.165 18.201 18.202 18.201z" data-original="#000000" class="active-path" data-old_color="#000000" fill="#CB3337"/><path d="m392.985 181.043h-77.465v65.383c0 8.283-6.715 14.998-14.999 14.998h-89.043c-8.283 0-14.998-6.715-14.998-14.998v-65.383h-77.465c-8.283 0-14.998 6.715-14.998 14.998v300.96c0 8.283 6.715 14.998 14.998 14.998h273.969c8.283 0 14.999-6.715 14.999-14.998v-300.96c0-8.283-6.715-14.998-14.998-14.998zm-56.684 274.615c0 8.284-6.716 15-15 15h-130.602c-8.284 0-15-6.716-15-15v-12.692c0-.386.015-.772.045-1.157 1.562-20.175 10.606-38.897 25.471-52.717 4.841-4.501 10.164-8.336 15.834-11.479-5.777-7.948-9.197-17.716-9.197-28.271 0-26.578 21.623-48.202 48.202-48.202 26.578 0 48.201 21.623 48.201 48.202 0 10.554-3.419 20.32-9.194 28.267 5.468 3.03 10.609 6.708 15.306 10.999 14.77 13.492 23.955 31.851 25.864 51.695.046.478.069.957.069 1.437v13.918z" data-original="#000000" class="active-path" data-old_color="#000000" fill="#CB3337"/><path d="m256.054 397.542c-25.067 0-46.392 18.674-50.01 43.116h100.021c-3.61-24.753-24.681-43.116-50.011-43.116z" data-original="#000000" class="active-path" data-old_color="#000000" fill="#CB3337"/><path d="m226.477 206.379v25.05h59.046v-25.05c-8.944 4.293-18.957 6.702-29.523 6.702s-20.579-2.409-29.523-6.702z" data-original="#000000" class="active-path" data-old_color="#000000" fill="#CB3337"/><path d="m187.648 148.392c-.068-1.25-.109-2.507-.109-3.773 0-25.251 13.752-47.337 34.15-59.204l-53.256-78.814c-2.79-4.128-7.446-6.601-12.428-6.601h-69.993c-5.548 0-10.643 3.063-13.246 7.963s-2.288 10.836.818 15.433l84.464 124.997h29.6z" data-original="#000000" class="active-path" data-old_color="#000000" fill="#CB3337"/><path d="m439.234 7.963c-2.603-4.9-7.698-7.963-13.246-7.963h-69.993c-4.982 0-9.638 2.473-12.427 6.601l-53.256 78.814c20.398 11.867 34.15 33.953 34.15 59.204 0 1.266-.041 2.523-.109 3.773h29.599l84.464-124.997c3.105-4.596 3.42-10.533.818-15.432z" data-original="#000000" class="active-path" data-old_color="#000000" fill="#CB3337"/><circle cx="256" cy="144.619" r="39.464" data-original="#000000" class="active-path" data-old_color="#000000" fill="#CB3337"/></g></g> </svg>
