<?xml version="1.0"?>
<svg xmlns="http://www.w3.org/2000/svg" id="Layer_5" enable-background="new 0 0 64 64" height="512px" viewBox="0 0 64 64" width="512px"><g><g><path d="m43.51 48.198c-.318-.119-.639-.252-.956-.4l-2.489 1.48-5.342-5.342 1.479-2.489c-.147-.317-.281-.637-.4-.956l-2.802-.714v-7.555l2.802-.713c.119-.319.253-.639.4-.957l-1.479-2.489 5.342-5.342 2.489 1.48c.317-.147.638-.281.956-.4l.713-2.801h2.777v-17c0-.551-.448-1-1-1h-31v12h-12v45c0 .551.448 1 1 1h42c.552 0 1-.449 1-1v-9h-2.777zm-.51-43.198h2v2h-2zm-4 0h2v2h-2zm-4 0h2v2h-2zm-17 1h14v8h-14zm-9 11h10v2h-10zm-4 0h2v2h-2zm0 4h14v2h-14zm5 37h-4v-14h4zm8 0h-4v-18h4zm8 0h-4v-22h4zm0-36.586-20.293 20.293-1.414-1.414 21.707-21.707 4 4 11.586-11.586h-5.586v-2h9v9h-2v-5.586l-13 13zm7 31.586v2h-2v-2zm12 6h-14v-2h14zm0-4h-10v-2h10z" data-original="#000000" class="active-path" data-old_color="#000000" fill="#CB3337"/><path d="m58.478 39.35.168-.528 2.354-.599v-4.445l-2.354-.599-.168-.528c-.179-.558-.416-1.125-.705-1.683l-.255-.493 1.246-2.095-3.143-3.143-2.095 1.246-.492-.254c-.56-.289-1.126-.525-1.686-.704l-.528-.169-.597-2.356h-4.445l-.598 2.354-.528.169c-.56.179-1.126.415-1.686.704l-.492.254-2.095-1.246-3.143 3.143 1.246 2.095-.255.493c-.289.559-.526 1.125-.705 1.683l-.168.528-2.354.6v4.445l2.354.599.168.528c.179.559.416 1.125.704 1.683l.256.493-1.246 2.096 3.143 3.143 2.095-1.246.492.254c.56.289 1.126.525 1.686.704l.528.169.597 2.355h4.445l.598-2.354.528-.169c.56-.179 1.126-.415 1.686-.704l.492-.254 2.095 1.246 3.143-3.143-1.246-2.096.256-.493c.288-.559.525-1.125.704-1.683zm-10.478 4.65c-4.418 0-8-3.582-8-8s3.582-8 8-8 8 3.582 8 8-3.582 8-8 8z" data-original="#000000" class="active-path" data-old_color="#000000" fill="#CB3337"/><path d="m13 4.414-8.586 8.586h8.586z" data-original="#000000" class="active-path" data-old_color="#000000" fill="#CB3337"/><circle cx="48" cy="36" r="4" data-original="#000000" class="active-path" data-old_color="#000000" fill="#CB3337"/></g></g> </svg>
