<?xml version="1.0"?>
<svg xmlns="http://www.w3.org/2000/svg" id="Capa_1" enable-background="new 0 0 512 512" height="512px" viewBox="0 0 512 512" width="512px" class=""><g><g id="XMLID_253_"><path id="XMLID_548_" d="m299.183 287.001c0-21.669-17.629-39.299-39.299-39.299h-7.769c-21.669 0-39.299 17.629-39.299 39.299v10.135h86.366v-10.135z" data-original="#000000" class="active-path" data-old_color="#000000" fill="#CB3337"/><path id="XMLID_547_" d="m256 216.57c10.631 0 19.279-8.665 19.279-19.316 0-10.652-8.648-19.317-19.279-19.317-10.63 0-19.279 8.665-19.279 19.317 0 10.651 8.649 19.316 19.279 19.316z" data-original="#000000" class="active-path" data-old_color="#000000" fill="#CB3337"/><path id="XMLID_541_" d="m399.167 65.126h-81.033v41.143c0 8.083-6.553 14.636-14.636 14.636h-94.995c-8.083 0-14.636-6.553-14.636-14.636v-41.143h-81.033c-19.786 0-35.826 16.04-35.826 35.826v375.222c0 19.786 16.04 35.826 35.826 35.826h286.333c19.786 0 35.826-16.04 35.826-35.826v-375.222c-.001-19.786-16.04-35.826-35.826-35.826zm-215.622 221.875c0-25.42 13.915-47.637 34.517-59.479-6.634-8.31-10.613-18.83-10.613-30.269 0-26.792 21.779-48.589 48.55-48.589s48.551 21.797 48.551 48.589c0 11.438-3.98 21.958-10.613 30.268 20.603 11.842 34.518 34.059 34.518 59.479v24.771c0 8.083-6.553 14.636-14.636 14.636h-115.638c-8.083 0-14.636-6.553-14.636-14.636zm49.999 86.98-30.074 98.634c-.997 3.113-3.246 5.508-6.69 7.139-3.258 1.543-7.034 2.326-11.225 2.326s-7.967-.782-11.225-2.326c-3.447-1.633-5.696-4.028-6.684-7.12l-30.22-98.577c-.351-1.383-.389-1.924-.389-2.217 0-3.358 2.017-6.24 5.994-8.566 3.719-2.173 7.643-3.275 11.664-3.275 6.684 0 8.956 3.146 9.686 5.786l21.169 77.571 21.017-77.563c.729-2.646 3.001-5.793 9.688-5.793 4.018 0 7.942 1.102 11.663 3.274l.001.001c3.977 2.327 5.994 5.208 5.994 8.565-.001.311-.043.835-.369 2.141zm38.982 97.874c0 3.015-1.556 5.454-4.5 7.054-2.686 1.461-5.917 2.202-9.603 2.202-3.688 0-6.919-.741-9.604-2.202-2.943-1.597-4.499-4.037-4.499-7.053v-102.762c0-3.027 1.564-5.443 4.523-6.985 2.681-1.399 5.904-2.109 9.58-2.109 3.673 0 6.896.709 9.58 2.109 2.958 1.544 4.522 3.959 4.522 6.985v102.761zm102.436-72.385c0 13.225-3.85 23.152-11.444 29.507-7.513 6.29-17.541 9.479-29.803 9.479h-14.495v33.4c0 3.015-1.556 5.454-4.5 7.054-2.686 1.461-5.917 2.202-9.603 2.202-3.688 0-6.919-.741-9.604-2.202-2.943-1.597-4.499-4.037-4.499-7.053v-102.763c0-2.487 1.042-4.661 3.097-6.46 1.996-1.748 4.612-2.634 7.774-2.634h33.446c11.841 0 21.493 3.139 28.688 9.33 7.261 6.249 10.943 16.117 10.943 29.332z" data-original="#000000" class="active-path" data-old_color="#000000" fill="#CB3337"/><path id="XMLID_540_" d="m333.715 384.974h-14.495v31.092h14.496c8.897 0 13.042-4.657 13.042-14.657v-1.777c-.001-10.001-4.145-14.658-13.043-14.658z" data-original="#000000" class="active-path" data-old_color="#000000" fill="#CB3337"/><path id="XMLID_528_" d="m234.288 91.634h43.424c6.158 0 11.15-4.992 11.15-11.149v-69.335c0-6.158-4.992-11.15-11.15-11.15h-43.424c-6.158 0-11.15 4.992-11.15 11.15v69.334c0 6.158 4.992 11.15 11.15 11.15z" data-original="#000000" class="active-path" data-old_color="#000000" fill="#CB3337"/></g></g> </svg>
