<?xml version="1.0"?>
<svg xmlns="http://www.w3.org/2000/svg" height="512px" viewBox="0 0 192 192" width="512px"><g><g id="_29-passion" data-name="29-passion"><g id="Glyph"><path d="m191.723 84.327c-1.362-13.9-7.531-25.991-17.369-34.056-16.388-13.437-45.183-16.402-78.354 13.461-33.17-29.862-61.965-26.897-78.354-13.461-9.838 8.065-16.006 20.16-17.369 34.056-1.388 14.173 2.523 28.982 11.006 41.71 20.183 30.276 78.296 63.563 80.76 64.963a8.071 8.071 0 0 0 7.914 0c2.464-1.4 60.576-34.689 80.761-64.965 8.482-12.726 12.394-27.535 11.005-41.708zm-80.451 68.4-13.858 13.859a2 2 0 0 1 -2.828 0l-13.858-13.858a2 2 0 0 1 -.559-1.743l7.831-46.985h16l7.831 46.985a2 2 0 0 1 -.559 1.743zm-7.272-56.727h-16l-8-24h32z" data-original="#000000" class="active-path" data-old_color="#000000" fill="#CB3337"/></g></g></g> </svg>
