<?xml version="1.0"?>
<svg xmlns="http://www.w3.org/2000/svg" id="Layer_5" enable-background="new 0 0 64 64" height="512px" viewBox="0 0 64 64" width="512px"><g><g><path d="m10.224 42.165-.984 2.952c.671.121 1.307.337 1.897.635l.668-2.005z" data-original="#000000" class="active-path" data-old_color="#000000" fill="#CB3337"/><path d="m8 47c-2.757 0-5 2.243-5 5s2.243 5 5 5 5-2.243 5-5-2.243-5-5-5zm0 7c-1.105 0-2-.895-2-2s.895-2 2-2 2 .895 2 2-.895 2-2 2z" data-original="#000000" class="active-path" data-old_color="#000000" fill="#CB3337"/><path d="m27 42c-5.079 0-9.624-2.239-12.738-5.772l2.468-7.256c.091.007.178.028.27.028 1.239 0 2.333-.578 3.068-1.465l8.006 3.736c-.044.237-.074.479-.074.729 0 2.206 1.794 4 4 4 .74 0 1.424-.215 2.019-.567l2.706 2.706c.44-.502.912-.974 1.414-1.414l-2.706-2.706c.352-.595.567-1.279.567-2.019 0-2.206-1.794-4-4-4-1.239 0-2.334.578-3.068 1.465l-8.006-3.736c.044-.237.074-.479.074-.729 0-2.206-1.794-4-4-4s-4 1.794-4 4c0 1.404.731 2.637 1.829 3.351l-2.007 6.021c-1.78-2.688-2.822-5.907-2.822-9.372 0-9.389 7.611-17 17-17s17 7.611 17 17c0 3.67-1.175 7.06-3.152 9.838 1.338-.73 2.794-1.269 4.338-1.564.676-1.488 1.176-3.05 1.47-4.658l.106-.58 2.238-.754v-4.563l-2.237-.755-.106-.579c-.513-2.803-1.588-5.405-3.197-7.733l-.335-.484 1.045-2.11-3.227-3.228-2.11 1.045-.484-.335c-2.329-1.609-4.93-2.684-7.733-3.197l-.579-.106-.755-2.237h-4.563l-.755 2.237-.579.106c-2.803.513-5.404 1.588-7.733 3.197l-.484.335-2.11-1.045-3.228 3.227 1.045 2.11-.335.484c-1.608 2.328-2.684 4.93-3.197 7.733l-.106.579-2.237.755v4.563l2.237.755.106.579c.513 2.803 1.588 5.404 3.197 7.733l.335.484-1.045 2.11 3.227 3.227 2.11-1.045.484.335c2.329 1.609 4.93 2.684 7.733 3.197l.579.106.755 2.238h4.563l.755-2.237.579-.106c.997-.182 1.996-.465 2.982-.809.434-1.502 1.103-2.902 1.953-4.171-2.513 1.467-5.429 2.323-8.55 2.323z" data-original="#000000" class="active-path" data-old_color="#000000" fill="#CB3337"/><path d="m20.603 14.845c.566-.358 1.166-.669 1.781-.925l-.769-1.847c-.719.3-1.419.664-2.081 1.082z" data-original="#000000" class="active-path" data-old_color="#000000" fill="#CB3337"/><path d="m27 17h12v2h-12z" data-original="#000000" class="active-path" data-old_color="#000000" fill="#CB3337"/><path d="m27 21h12v2h-12z" data-original="#000000" class="active-path" data-old_color="#000000" fill="#CB3337"/><path d="m34.539 13.201c-3.162-2.024-7.121-2.687-10.769-1.827l.459 1.946c3.125-.737 6.521-.171 9.231 1.565z" data-original="#000000" class="active-path" data-old_color="#000000" fill="#CB3337"/><path d="m48 35c-7.168 0-13 5.832-13 13s5.832 13 13 13 13-5.832 13-13-5.832-13-13-13zm0 23c-5.523 0-10-4.477-10-10s4.477-10 10-10 10 4.477 10 10-4.477 10-10 10z" data-original="#000000" class="active-path" data-old_color="#000000" fill="#CB3337"/><path d="m49 43.145v-2.145h-2v2.145c-1.155.366-2 1.435-2 2.709 0 1.087.604 2.066 1.578 2.553l1.95.974c.291.146.472.439.472.765 0 .471-.383.854-.854.854h-.292c-.471 0-.854-.383-.854-.854v-.146h-2v.146c0 1.274.845 2.343 2 2.709v2.145h2v-2.145c1.155-.366 2-1.435 2-2.709 0-1.087-.604-2.066-1.578-2.553l-1.95-.974c-.291-.146-.472-.439-.472-.765 0-.471.383-.854.854-.854h.292c.471 0 .854.383.854.854v.146h2v-.146c0-1.274-.845-2.343-2-2.709z" data-original="#000000" class="active-path" data-old_color="#000000" fill="#CB3337"/></g></g> </svg>
