<?xml version="1.0"?>
<svg xmlns="http://www.w3.org/2000/svg" height="512px" viewBox="0 0 464 464" width="512px"><g><path d="m448 448h16v16h-16zm0 0" data-original="#000000" class="active-path" data-old_color="#000000" fill="#CB3337"/><path d="m0 448h16v16h-16zm0 0" data-original="#000000" class="active-path" data-old_color="#000000" fill="#CB3337"/><path d="m280 0h16v32h-16zm0 0" data-original="#000000" class="active-path" data-old_color="#000000" fill="#CB3337"/><path d="m192 304h-112v16h112zm0 0" data-original="#000000" class="active-path" data-old_color="#000000" fill="#CB3337"/><path d="m328 208h16v16h-16zm0 0" data-original="#000000" class="active-path" data-old_color="#000000" fill="#CB3337"/><path d="m160 400h24v16h-24zm0 0" data-original="#000000" class="active-path" data-old_color="#000000" fill="#CB3337"/><path d="m328 144h16v16h-16zm0 0" data-original="#000000" class="active-path" data-old_color="#000000" fill="#CB3337"/><path d="m128 336h-64v-48h144v32h16v-48h-176v176h-16v16h80v-64h-48v-48h64zm0 0" data-original="#000000" class="active-path" data-old_color="#000000" fill="#CB3337"/><path d="m128 464h128v-96h-128zm16-80h96v48h-96zm0 0" data-original="#000000" class="active-path" data-old_color="#000000" fill="#CB3337"/><path d="m200 400h24v16h-24zm0 0" data-original="#000000" class="active-path" data-old_color="#000000" fill="#CB3337"/><path d="m144 336h96v16h-96zm0 0" data-original="#000000" class="active-path" data-old_color="#000000" fill="#CB3337"/><path d="m232 80h112v16h-112zm0 0" data-original="#000000" class="active-path" data-old_color="#000000" fill="#CB3337"/><path d="m264 48h48v16h-48zm0 0" data-original="#000000" class="active-path" data-old_color="#000000" fill="#CB3337"/><path d="m88 96h96v32h-96zm0 0" data-original="#000000" class="active-path" data-old_color="#000000" fill="#CB3337"/><path d="m160 176h16v48h-16zm0 0" data-original="#000000" class="active-path" data-old_color="#000000" fill="#CB3337"/><path d="m208 144h-144v112h144zm-80 96h-48v-80h48zm64 0h-48v-80h48zm0 0" data-original="#000000" class="active-path" data-old_color="#000000" fill="#CB3337"/><path d="m80 368h32v16h-32zm0 0" data-original="#000000" class="active-path" data-old_color="#000000" fill="#CB3337"/><path d="m96 176h16v48h-16zm0 0" data-original="#000000" class="active-path" data-old_color="#000000" fill="#CB3337"/><path d="m304 320h72v-208h-176v16h24v128h16v64h16v32h16v112h16v-112h16zm8-192h48v48h-48zm0 64h48v48h-48zm0 64h48v48h-48zm-16 48h-48v-48h48zm0-64h-48v-48h48zm0-64h-48v-48h48zm0 0" data-original="#000000" class="active-path" data-old_color="#000000" fill="#CB3337"/><path d="m368 400h16v16h-16zm0 0" data-original="#000000" class="active-path" data-old_color="#000000" fill="#CB3337"/><path d="m264 208h16v16h-16zm0 0" data-original="#000000" class="active-path" data-old_color="#000000" fill="#CB3337"/><path d="m320 336h80v16h-80zm0 0" data-original="#000000" class="active-path" data-old_color="#000000" fill="#CB3337"/><path d="m264 272h16v16h-16zm0 0" data-original="#000000" class="active-path" data-old_color="#000000" fill="#CB3337"/><path d="m264 144h16v16h-16zm0 0" data-original="#000000" class="active-path" data-old_color="#000000" fill="#CB3337"/><path d="m328 272h16v16h-16zm0 0" data-original="#000000" class="active-path" data-old_color="#000000" fill="#CB3337"/><path d="m336 400h16v16h-16zm0 0" data-original="#000000" class="active-path" data-old_color="#000000" fill="#CB3337"/><path d="m416 368h-112v96h128v-16h-16zm-16 64h-80v-48h80zm0 0" data-original="#000000" class="active-path" data-old_color="#000000" fill="#CB3337"/></g> </svg>
